<svg width="18" height="18" viewBox="0 0 18 18" fill="none" xmlns="http://www.w3.org/2000/svg">
<path d="M16.8575 14.5049V11.0657C16.8575 10.6739 16.8039 10.2883 16.5587 9.96446C16.2384 9.54065 15.7729 9.30001 15.2385 9.29913H14.3737V3.5103C14.3737 3.32134 14.3862 3.12622 14.3672 2.93761C14.3136 2.40446 14.0664 1.92968 13.6113 1.63067C13.377 1.47651 13.0914 1.40427 12.8119 1.40356H5.39057C5.02793 1.40356 4.67426 1.43292 4.36189 1.64966C3.91418 1.95991 3.66299 2.44841 3.63047 2.98858C3.6266 3.05257 3.62818 3.11708 3.62818 3.18194V9.29878H2.77441C2.33092 9.29878 1.89287 9.45979 1.58543 9.7878C1.30637 10.085 1.14948 10.4765 1.14598 10.8842V13.2456C1.14598 13.8331 1.14053 14.4209 1.14598 15.0083C1.14949 15.3961 1.28818 15.75 1.53393 16.0467C1.80322 16.3719 2.19715 16.5454 2.60971 16.5891C2.70444 16.5964 2.7995 16.5987 2.89447 16.596H15.2714C15.2816 16.596 15.2918 16.596 15.3018 16.5949C15.7117 16.5828 16.112 16.4183 16.4005 16.1237C16.6903 15.8257 16.854 15.4274 16.8575 15.0117C16.8584 14.8422 16.8575 14.6735 16.8575 14.5049ZM15.5945 10.4619C15.5857 10.4561 15.5775 10.4497 15.5697 10.4426C15.5706 10.4414 15.5811 10.4493 15.5938 10.461L15.5945 10.4619ZM13.2058 2.67288C13.198 2.66389 13.1908 2.65444 13.1842 2.64458C13.1968 2.65812 13.2072 2.67042 13.2058 2.67288ZM4.95709 2.51362C4.95814 2.51503 4.94637 2.52399 4.9323 2.53437L4.95709 2.51362ZM4.91385 2.55036C4.949 2.52892 4.98416 2.50817 5.01932 2.48937C5.0516 2.47886 5.0844 2.47 5.11758 2.46282C5.19404 2.4586 5.27121 2.46089 5.3475 2.46089H11.9263C12.2274 2.46089 12.5287 2.45825 12.8298 2.46089C12.8474 2.46089 12.866 2.46177 12.8841 2.46282C12.9177 2.47003 12.9509 2.47901 12.9836 2.48972C13.0188 2.50729 13.0511 2.52698 13.0842 2.54755C13.1049 2.56618 13.1255 2.58481 13.145 2.60485C13.1478 2.60784 13.1613 2.6212 13.175 2.63544C13.1807 2.64335 13.1863 2.65144 13.1926 2.6597C13.2186 2.69998 13.2421 2.74184 13.2629 2.78503C13.2842 2.84559 13.301 2.90763 13.3132 2.97065C13.3331 3.19794 13.3167 3.43384 13.3167 3.65989V8.81468C13.3167 8.97604 13.3148 9.13759 13.3144 9.29913H4.68498V3.81089C4.68498 3.56374 4.68322 3.31642 4.68498 3.06927C4.68498 3.03411 4.68674 3.00071 4.68937 2.96661C4.70158 2.90481 4.71814 2.84396 4.73895 2.7845C4.75832 2.74479 4.77998 2.70623 4.80381 2.66901C4.80627 2.66497 4.81066 2.65864 4.81576 2.65144C4.82982 2.63509 4.84916 2.61241 4.85689 2.60433C4.87518 2.58552 4.89434 2.56741 4.91402 2.54983L4.91385 2.55036ZM2.30684 10.5621C2.30122 10.571 2.29475 10.5793 2.2875 10.5869C2.28627 10.5853 2.29523 10.5748 2.30684 10.5621ZM2.40826 15.4335C2.41714 15.4392 2.42549 15.4457 2.43322 15.4529C2.43111 15.4548 2.42074 15.4459 2.40826 15.4335ZM12.6498 15.539H2.74277C2.71482 15.539 2.68705 15.538 2.65928 15.5362C2.61333 15.5265 2.56802 15.5141 2.52357 15.4989C2.48729 15.4809 2.45208 15.4607 2.41811 15.4386C2.4116 15.4344 2.4051 15.4299 2.39877 15.4255C2.37943 15.4079 2.35869 15.3863 2.35676 15.3842C2.33918 15.3666 2.32336 15.3469 2.30631 15.3288C2.2826 15.2929 2.26111 15.2556 2.24197 15.2172C2.22669 15.1723 2.21418 15.1266 2.20453 15.0802C2.19381 14.9345 2.20189 14.7853 2.20189 14.6408V11.3554C2.20189 11.1796 2.19012 10.9959 2.20383 10.8184C2.21362 10.7708 2.22636 10.7238 2.24197 10.6778C2.26007 10.6415 2.2802 10.6063 2.30227 10.5723C2.30648 10.5656 2.31105 10.5593 2.31545 10.553C2.33303 10.5336 2.35465 10.5129 2.35676 10.5108C2.37434 10.4932 2.39402 10.4776 2.41213 10.4605C2.44798 10.4368 2.48526 10.4153 2.52375 10.3962C2.56805 10.381 2.61325 10.3685 2.6591 10.3589C2.78426 10.3501 2.91205 10.3561 3.0365 10.3561H15.2584C15.2865 10.3561 15.3145 10.3572 15.3424 10.3589C15.3884 10.3685 15.4338 10.3809 15.4783 10.3962C15.5146 10.4142 15.5498 10.4344 15.5838 10.4565C15.5903 10.4607 15.5966 10.4653 15.6031 10.4697C15.6224 10.4872 15.6432 10.5089 15.6451 10.5108C15.6627 10.5284 15.6783 10.5482 15.6954 10.5663C15.7192 10.6022 15.7407 10.6394 15.7597 10.678C15.7752 10.7228 15.7877 10.7685 15.7973 10.8149C15.8081 10.9606 15.8 11.1099 15.8 11.2543V14.5404C15.8 14.7162 15.8116 14.8999 15.7979 15.0774C15.7883 15.1251 15.7755 15.1721 15.7597 15.218C15.7417 15.2544 15.7216 15.2896 15.6994 15.3235C15.6952 15.33 15.6908 15.3365 15.6863 15.3428C15.6687 15.3622 15.6471 15.3829 15.6451 15.3849C15.6275 15.4024 15.6079 15.4183 15.5896 15.4353C15.5538 15.459 15.5165 15.4805 15.4781 15.4996C15.4335 15.5149 15.3879 15.5274 15.3417 15.5371C15.3183 15.5385 15.295 15.5395 15.2714 15.5397H12.6495L12.6498 15.539ZM15.6952 15.333C15.701 15.3242 15.7074 15.3158 15.7146 15.308C15.7149 15.3105 15.7066 15.3203 15.6949 15.3332L15.6952 15.333Z" fill="black"/>
<path d="M8.04789 5.27213L9.47875 5.26633L11.7565 5.25684L12.2753 5.25456C12.5516 5.2535 12.8165 5.01233 12.8037 4.72616C12.7908 4.43999 12.5714 4.19653 12.2753 4.19776L10.8444 4.20374L8.56662 4.21323L8.04789 4.21534C7.77156 4.21657 7.50666 4.45756 7.51949 4.74374C7.53232 5.02991 7.75258 5.27336 8.04789 5.27213ZM12.2753 6.4562H8.04789C7.77139 6.4562 7.50666 6.69913 7.51949 6.98459C7.53232 7.27006 7.75258 7.51299 8.04789 7.51299H12.2753C12.5518 7.51299 12.8165 7.26989 12.8037 6.98459C12.7908 6.6993 12.5714 6.4562 12.2753 6.4562Z" fill="black"/>
<path d="M6.25496 4.20654C6.60723 4.20654 6.78336 4.38268 6.78336 4.73494C6.78336 5.08721 6.60723 5.26334 6.25496 5.26334C5.9027 5.26334 5.72656 5.08721 5.72656 4.73494C5.72656 4.38268 5.9027 4.20654 6.25496 4.20654Z" fill="black"/>
<path d="M6.25496 6.47632C6.60723 6.47632 6.78336 6.65245 6.78336 7.00472C6.78336 7.35698 6.60723 7.53312 6.25496 7.53312C5.9027 7.53312 5.72656 7.35698 5.72656 7.00472C5.72656 6.65245 5.9027 6.47632 6.25496 6.47632Z" fill="black"/>
</svg>
