<?xml version="1.0" standalone="no"?><!DOCTYPE svg PUBLIC "-//W3C//DTD SVG 1.1//EN" "http://www.w3.org/Graphics/SVG/1.1/DTD/svg11.dtd"><svg t="1718683008750" class="icon" viewBox="0 0 1024 1024" version="1.1" xmlns="http://www.w3.org/2000/svg" p-id="2482" xmlns:xlink="http://www.w3.org/1999/xlink" width="200" height="200"><path d="M519.836735 506.462041m-501.551021 0a501.55102 501.55102 0 1 0 1003.102041 0 501.55102 501.55102 0 1 0-1003.102041 0Z" fill="#1E1E20" p-id="2483"></path><path d="M641.650939 556.449959l70.885877 70.802286-0.041796 0.041796-192.658285 192.637388-192.679184-192.679184 70.927673-70.76049 121.751511 121.75151 121.814204-121.793306z m-121.814204-121.897796l71.888979 71.88898h-0.041796l0.083592 0.020898-71.930775 71.930775-71.826286-71.826285-0.10449-0.10449 0.10449-0.10449 12.601469-12.580571 59.224817-59.224817z m242.625306 1.107592l70.844081 70.844082-70.844081 70.844081-70.844082-70.844081 70.844082-70.844082z m-485.250612-0.041796l70.844081 70.844082-70.844081 70.844081-70.844082-70.844081 70.844082-70.844082z m242.625306-242.625306l192.658285 192.679184-70.844081 70.844081-121.814204-121.835102-121.751511 121.751511-70.844081-70.844082 192.595592-192.595592z" fill="#E3BF5C" p-id="2484"></path></svg>