<svg t="1718272988996" class="icon" viewBox="0 0 1024 1024" version="1.1" xmlns="http://www.w3.org/2000/svg" p-id="1095" width="200" height="200"><path d="M85.333333 512c0-235.648 191.018667-426.666667 426.666667-426.666667s426.666667 191.018667 426.666667 426.666667S747.648 938.666667 512 938.666667 85.333333 747.648 85.333333 512z m474.026667-226.389333L559.36 738.048l0.298667 4.394667a32 32 0 0 0 54.314666 18.261333l140.074667-140.074667 3.114667-3.58399999a32 32 0 0 0-3.114667-41.68533301l-3.58400001-3.072a32 32 0 0 0-41.64266699 3.072L623.36 660.778667l0-375.168-0.298667-4.352a32 32 0 0 0-63.701333 4.352z m-292.394667 121.088a32 32 0 0 0 3.114667 41.685333l3.58399999 3.114667a32 32 0 0 0 41.64266701-3.114667l85.461333-85.418667L400.768 738.133333l0.298667 4.352a32 32 0 0 0 63.701333-4.352l0-452.437333-0.298667-4.39466701a32 32 0 0 0-54.314666-18.26133299L270.08 403.114667z" fill="#1296db" p-id="1096"></path></svg>