<svg width="14" height="14" viewBox="0 0 14 14" fill="none" xmlns="http://www.w3.org/2000/svg">
<path fill-rule="evenodd" clip-rule="evenodd" d="M10 0.25C10.1912 0.25 10.3657 0.321526 10.4982 0.439329C10.6028 0.532352 10.6812 0.65418 10.721 0.792417L10.7433 0.898978L10.75 10C10.75 10.1912 10.6785 10.3657 10.5607 10.4982C10.4676 10.6028 10.3458 10.6812 10.2076 10.721L10.101 10.7433L1 10.75C0.808801 10.75 0.634297 10.6785 0.50184 10.5607C0.397244 10.4676 0.318767 10.3458 0.279045 10.2076L0.256716 10.101L0.25 1C0.25 0.808801 0.321526 0.634297 0.439329 0.50184C0.532352 0.397244 0.65418 0.318767 0.792417 0.279045L0.898978 0.256716L10 0.25ZM12.8996 2.25664C13.1347 2.25665 13.3344 2.32291 13.4819 2.43945C13.6267 2.55382 13.7186 2.71581 13.7433 2.89898L13.75 13C13.75 13.1912 13.6785 13.3657 13.5607 13.4982C13.4444 13.6289 13.2831 13.7188 13.101 13.7433L3 13.75C2.79289 13.75 2.60539 13.6661 2.46967 13.5303C2.33395 13.3946 2.25 13.2071 2.25 13C2.25 12.8088 2.32153 12.6343 2.43933 12.5018C2.55561 12.3711 2.71689 12.2812 2.89898 12.2567L12.25 12.2498V3C12.25 2.8088 12.3215 2.6343 12.4393 2.50184C12.5557 2.37096 12.7172 2.28097 12.8996 2.25664ZM1.75 1.75H9.25V9.25H1.75V1.75Z" fill="#2397FF"/>
</svg>
