<svg width="18" height="15" viewBox="0 0 18 15" fill="none" xmlns="http://www.w3.org/2000/svg">
<path d="M1.54231 3.6571L9.0005 6.48334L16.4577 3.6571L9.0005 0.829862L1.54231 3.6571ZM9.0005 7.31359C8.95043 7.31359 8.90035 7.30557 8.85228 7.28755L0.261392 4.03066C0.185009 4.00236 0.119071 3.95144 0.0723691 3.8847C0.0256675 3.81795 0.00042236 3.73856 0 3.6571C0.000142665 3.57559 0.0251465 3.49606 0.0716732 3.42914C0.1182 3.36221 0.184036 3.31107 0.260391 3.28254L8.85228 0.0266569C8.94755 -0.00888565 9.05245 -0.00888565 9.14772 0.0266569L17.7396 3.28254C17.8968 3.34263 18 3.49085 18 3.6571C17.9995 3.73841 17.9744 3.81765 17.9279 3.88435C17.8814 3.95106 17.8157 4.00207 17.7396 4.03066L9.14772 7.28755C9.10062 7.30503 9.05074 7.31386 9.0005 7.31359Z" fill="#252736"/>
<path d="M9.0005 10.8205C8.95043 10.8205 8.90035 10.8114 8.85228 10.7934L0.261392 7.53753C0.18493 7.50904 0.118959 7.45794 0.0722624 7.39102C0.025566 7.32411 0.000359892 7.24456 0 7.16296C0 6.99772 0.104156 6.84949 0.261392 6.7894L4.55784 5.16096C4.76815 5.08084 5.00451 5.184 5.08663 5.39031C5.10585 5.43971 5.11502 5.49245 5.11361 5.54544C5.1122 5.59843 5.10023 5.6506 5.0784 5.69891C5.05658 5.74722 5.02534 5.79069 4.98652 5.82678C4.94769 5.86287 4.90205 5.89085 4.85228 5.90908L1.54231 7.16296L9.0005 9.99021L16.4577 7.16296L13.1477 5.90908C13.098 5.89075 13.0525 5.86269 13.0138 5.82656C12.9751 5.79043 12.9439 5.74695 12.9222 5.69865C12.9005 5.65035 12.8886 5.59821 12.8873 5.54527C12.8859 5.49232 12.8951 5.43964 12.9144 5.39031C12.9552 5.29063 13.0333 5.21085 13.1321 5.168C13.2309 5.12515 13.3425 5.12262 13.4432 5.16096L17.7396 6.7894C17.8968 6.84949 18 6.99772 18 7.16296C17.9997 7.24444 17.9747 7.32391 17.9282 7.39081C17.8816 7.45771 17.8159 7.50888 17.7396 7.53753L9.14772 10.7934C9.10068 10.8112 9.05081 10.8204 9.0005 10.8205Z" fill="#252736"/>
<path d="M9.0005 14.027C8.95043 14.027 8.90035 14.017 8.85228 14L0.261392 10.7431C0.185089 10.7147 0.119229 10.6637 0.0725459 10.597C0.0258629 10.5303 0.000562631 10.451 0 10.3696C0 10.2043 0.104156 10.0561 0.261392 9.996L4.35253 8.44167C4.45313 8.40279 4.56498 8.40505 4.66393 8.44797C4.76287 8.49088 4.84096 8.571 4.88132 8.67101C4.90057 8.72035 4.90978 8.77303 4.90844 8.82597C4.90709 8.87892 4.89521 8.93106 4.87348 8.97936C4.85176 9.02766 4.82063 9.07114 4.78191 9.10727C4.74319 9.1434 4.69766 9.17145 4.64797 9.18979L1.54231 10.3696L9.0005 13.1958L16.4577 10.3696L13.353 9.19079C13.3033 9.17256 13.2576 9.14457 13.2188 9.10849C13.18 9.0724 13.1487 9.02893 13.1269 8.98062C13.1051 8.93231 13.0931 8.88014 13.0917 8.82715C13.0903 8.77416 13.0995 8.72142 13.1187 8.67201C13.1591 8.57175 13.2373 8.49139 13.3364 8.44829C13.4355 8.40519 13.5476 8.40281 13.6485 8.44167L17.7386 9.996C17.8968 10.0561 18 10.2043 18 10.3696C17.9995 10.4509 17.9744 10.5301 17.9279 10.5968C17.8814 10.6635 17.8157 10.7145 17.7396 10.7431L9.14672 14C9.09968 14.0178 9.0498 14.027 8.9995 14.027" fill="#252736"/>
</svg>
