<?xml version="1.0" standalone="no"?><!DOCTYPE svg PUBLIC "-//W3C//DTD SVG 1.1//EN" "http://www.w3.org/Graphics/SVG/1.1/DTD/svg11.dtd"><svg t="1718683014745" class="icon" viewBox="0 0 1024 1024" version="1.1" xmlns="http://www.w3.org/2000/svg" p-id="5202" xmlns:xlink="http://www.w3.org/1999/xlink" width="200" height="200"><path d="M512 512m-512 0a512 512 0 1 0 1024 0 512 512 0 1 0-1024 0Z" fill="#040A25" p-id="5203"></path><path d="M583.416082 356.183093c0-100.394227-48.349691-186.906392-85.403711-215.251134 0 0-2.586392-1.530722-2.586392 2.586392-3.114227 194.137732-101.397113 247.185155-155.922474 317.703917-125.044124 163.734433-8.762062 342.934433 109.63134 375.924124 66.401649 18.52701-15.412784-32.936907-25.705567-141.09031-12.404124-131.325361 159.986804-231.244536 159.986804-339.872989" fill="#FFFFFF" p-id="5204"></path><path d="M648.234227 422.584742c-0.527835-0.527835-1.530722-0.527835-2.586392 0l-0.527835 0.527835c-2.058557 24.227629-28.819794 76.747216-62.284536 124.621856-113.69567 162.731546-48.877526 241.009485-12.35134 283.236289 21.113402 24.70268 0 0 52.994639-25.230516 4.117113-2.058557 102.927835-54.578144 113.69567-173.552165 10.926186-115.859794-62.706804-188.489897-88.940206-209.603299" fill="#059BDC" p-id="5205"></path></svg>